<?xml version="1.0" encoding="utf-8" standalone="no"?>
<!DOCTYPE svg PUBLIC "-//W3C//DTD SVG 1.1//EN"
  "http://www.w3.org/Graphics/SVG/1.1/DTD/svg11.dtd">
<svg xmlns:xlink="http://www.w3.org/1999/xlink" width="504pt" height="360pt" viewBox="0 0 504 360" xmlns="http://www.w3.org/2000/svg" version="1.1">
 <metadata>
  <rdf:RDF xmlns:dc="http://purl.org/dc/elements/1.1/" xmlns:cc="http://creativecommons.org/ns#" xmlns:rdf="http://www.w3.org/1999/02/22-rdf-syntax-ns#">
   <cc:Work>
    <dc:type rdf:resource="http://purl.org/dc/dcmitype/StillImage"/>
    <dc:date>2025-10-28T20:18:53.696837</dc:date>
    <dc:format>image/svg+xml</dc:format>
    <dc:creator>
     <cc:Agent>
      <dc:title>Matplotlib v3.10.5, https://matplotlib.org/</dc:title>
     </cc:Agent>
    </dc:creator>
   </cc:Work>
  </rdf:RDF>
 </metadata>
 <defs>
  <style type="text/css">*{stroke-linejoin: round; stroke-linecap: butt}</style>
 </defs>
 <g id="figure_1">
  <g id="patch_1">
   <path d="M 0 360 
L 504 360 
L 504 0 
L 0 0 
z
" style="fill: #ffffff"/>
  </g>
  <g id="axes_1">
   <g id="patch_2">
    <path d="M 57.44 318.04 
L 488.777347 318.04 
L 488.777347 25.44 
L 57.44 25.44 
z
" style="fill: #ffffff"/>
   </g>
   <g id="matplotlib.axis_1">
    <g id="xtick_1">
     <g id="line2d_1">
      <defs>
       <path id="m21604ed512" d="M 0 0 
L 0 3.5 
" style="stroke: #000000; stroke-width: 0.8"/>
      </defs>
      <g>
       <use xlink:href="#m21604ed512" x="77.046243" y="318.04" style="stroke: #000000; stroke-width: 0.8"/>
      </g>
     </g>
     <g id="text_1">
      <!-- 0 -->
      <g transform="translate(73.864993 332.638438) scale(0.1 -0.1)">
       <defs>
        <path id="DejaVuSans-30" d="M 2034 4250 
Q 1547 4250 1301 3770 
Q 1056 3291 1056 2328 
Q 1056 1369 1301 889 
Q 1547 409 2034 409 
Q 2525 409 2770 889 
Q 3016 1369 3016 2328 
Q 3016 3291 2770 3770 
Q 2525 4250 2034 4250 
z
M 2034 4750 
Q 2819 4750 3233 4129 
Q 3647 3509 3647 2328 
Q 3647 1150 3233 529 
Q 2819 -91 2034 -91 
Q 1250 -91 836 529 
Q 422 1150 422 2328 
Q 422 3509 836 4129 
Q 1250 4750 2034 4750 
z
" transform="scale(0.015625)"/>
       </defs>
       <use xlink:href="#DejaVuSans-30"/>
      </g>
     </g>
    </g>
    <g id="xtick_2">
     <g id="line2d_2">
      <g>
       <use xlink:href="#m21604ed512" x="143.541895" y="318.04" style="stroke: #000000; stroke-width: 0.8"/>
      </g>
     </g>
     <g id="text_2">
      <!-- 2000 -->
      <g transform="translate(130.816895 332.638438) scale(0.1 -0.1)">
       <defs>
        <path id="DejaVuSans-32" d="M 1228 531 
L 3431 531 
L 3431 0 
L 469 0 
L 469 531 
Q 828 903 1448 1529 
Q 2069 2156 2228 2338 
Q 2531 2678 2651 2914 
Q 2772 3150 2772 3378 
Q 2772 3750 2511 3984 
Q 2250 4219 1831 4219 
Q 1534 4219 1204 4116 
Q 875 4013 500 3803 
L 500 4441 
Q 881 4594 1212 4672 
Q 1544 4750 1819 4750 
Q 2544 4750 2975 4387 
Q 3406 4025 3406 3419 
Q 3406 3131 3298 2873 
Q 3191 2616 2906 2266 
Q 2828 2175 2409 1742 
Q 1991 1309 1228 531 
z
" transform="scale(0.015625)"/>
       </defs>
       <use xlink:href="#DejaVuSans-32"/>
       <use xlink:href="#DejaVuSans-30" transform="translate(63.623047 0)"/>
       <use xlink:href="#DejaVuSans-30" transform="translate(127.246094 0)"/>
       <use xlink:href="#DejaVuSans-30" transform="translate(190.869141 0)"/>
      </g>
     </g>
    </g>
    <g id="xtick_3">
     <g id="line2d_3">
      <g>
       <use xlink:href="#m21604ed512" x="210.037547" y="318.04" style="stroke: #000000; stroke-width: 0.8"/>
      </g>
     </g>
     <g id="text_3">
      <!-- 4000 -->
      <g transform="translate(197.312547 332.638438) scale(0.1 -0.1)">
       <defs>
        <path id="DejaVuSans-34" d="M 2419 4116 
L 825 1625 
L 2419 1625 
L 2419 4116 
z
M 2253 4666 
L 3047 4666 
L 3047 1625 
L 3713 1625 
L 3713 1100 
L 3047 1100 
L 3047 0 
L 2419 0 
L 2419 1100 
L 313 1100 
L 313 1709 
L 2253 4666 
z
" transform="scale(0.015625)"/>
       </defs>
       <use xlink:href="#DejaVuSans-34"/>
       <use xlink:href="#DejaVuSans-30" transform="translate(63.623047 0)"/>
       <use xlink:href="#DejaVuSans-30" transform="translate(127.246094 0)"/>
       <use xlink:href="#DejaVuSans-30" transform="translate(190.869141 0)"/>
      </g>
     </g>
    </g>
    <g id="xtick_4">
     <g id="line2d_4">
      <g>
       <use xlink:href="#m21604ed512" x="276.5332" y="318.04" style="stroke: #000000; stroke-width: 0.8"/>
      </g>
     </g>
     <g id="text_4">
      <!-- 6000 -->
      <g transform="translate(263.8082 332.638438) scale(0.1 -0.1)">
       <defs>
        <path id="DejaVuSans-36" d="M 2113 2584 
Q 1688 2584 1439 2293 
Q 1191 2003 1191 1497 
Q 1191 994 1439 701 
Q 1688 409 2113 409 
Q 2538 409 2786 701 
Q 3034 994 3034 1497 
Q 3034 2003 2786 2293 
Q 2538 2584 2113 2584 
z
M 3366 4563 
L 3366 3988 
Q 3128 4100 2886 4159 
Q 2644 4219 2406 4219 
Q 1781 4219 1451 3797 
Q 1122 3375 1075 2522 
Q 1259 2794 1537 2939 
Q 1816 3084 2150 3084 
Q 2853 3084 3261 2657 
Q 3669 2231 3669 1497 
Q 3669 778 3244 343 
Q 2819 -91 2113 -91 
Q 1303 -91 875 529 
Q 447 1150 447 2328 
Q 447 3434 972 4092 
Q 1497 4750 2381 4750 
Q 2619 4750 2861 4703 
Q 3103 4656 3366 4563 
z
" transform="scale(0.015625)"/>
       </defs>
       <use xlink:href="#DejaVuSans-36"/>
       <use xlink:href="#DejaVuSans-30" transform="translate(63.623047 0)"/>
       <use xlink:href="#DejaVuSans-30" transform="translate(127.246094 0)"/>
       <use xlink:href="#DejaVuSans-30" transform="translate(190.869141 0)"/>
      </g>
     </g>
    </g>
    <g id="xtick_5">
     <g id="line2d_5">
      <g>
       <use xlink:href="#m21604ed512" x="343.028852" y="318.04" style="stroke: #000000; stroke-width: 0.8"/>
      </g>
     </g>
     <g id="text_5">
      <!-- 8000 -->
      <g transform="translate(330.303852 332.638438) scale(0.1 -0.1)">
       <defs>
        <path id="DejaVuSans-38" d="M 2034 2216 
Q 1584 2216 1326 1975 
Q 1069 1734 1069 1313 
Q 1069 891 1326 650 
Q 1584 409 2034 409 
Q 2484 409 2743 651 
Q 3003 894 3003 1313 
Q 3003 1734 2745 1975 
Q 2488 2216 2034 2216 
z
M 1403 2484 
Q 997 2584 770 2862 
Q 544 3141 544 3541 
Q 544 4100 942 4425 
Q 1341 4750 2034 4750 
Q 2731 4750 3128 4425 
Q 3525 4100 3525 3541 
Q 3525 3141 3298 2862 
Q 3072 2584 2669 2484 
Q 3125 2378 3379 2068 
Q 3634 1759 3634 1313 
Q 3634 634 3220 271 
Q 2806 -91 2034 -91 
Q 1263 -91 848 271 
Q 434 634 434 1313 
Q 434 1759 690 2068 
Q 947 2378 1403 2484 
z
M 1172 3481 
Q 1172 3119 1398 2916 
Q 1625 2713 2034 2713 
Q 2441 2713 2670 2916 
Q 2900 3119 2900 3481 
Q 2900 3844 2670 4047 
Q 2441 4250 2034 4250 
Q 1625 4250 1398 4047 
Q 1172 3844 1172 3481 
z
" transform="scale(0.015625)"/>
       </defs>
       <use xlink:href="#DejaVuSans-38"/>
       <use xlink:href="#DejaVuSans-30" transform="translate(63.623047 0)"/>
       <use xlink:href="#DejaVuSans-30" transform="translate(127.246094 0)"/>
       <use xlink:href="#DejaVuSans-30" transform="translate(190.869141 0)"/>
      </g>
     </g>
    </g>
    <g id="xtick_6">
     <g id="line2d_6">
      <g>
       <use xlink:href="#m21604ed512" x="409.524504" y="318.04" style="stroke: #000000; stroke-width: 0.8"/>
      </g>
     </g>
     <g id="text_6">
      <!-- 10000 -->
      <g transform="translate(393.618254 332.638438) scale(0.1 -0.1)">
       <defs>
        <path id="DejaVuSans-31" d="M 794 531 
L 1825 531 
L 1825 4091 
L 703 3866 
L 703 4441 
L 1819 4666 
L 2450 4666 
L 2450 531 
L 3481 531 
L 3481 0 
L 794 0 
L 794 531 
z
" transform="scale(0.015625)"/>
       </defs>
       <use xlink:href="#DejaVuSans-31"/>
       <use xlink:href="#DejaVuSans-30" transform="translate(63.623047 0)"/>
       <use xlink:href="#DejaVuSans-30" transform="translate(127.246094 0)"/>
       <use xlink:href="#DejaVuSans-30" transform="translate(190.869141 0)"/>
       <use xlink:href="#DejaVuSans-30" transform="translate(254.492188 0)"/>
      </g>
     </g>
    </g>
    <g id="xtick_7">
     <g id="line2d_7">
      <g>
       <use xlink:href="#m21604ed512" x="476.020156" y="318.04" style="stroke: #000000; stroke-width: 0.8"/>
      </g>
     </g>
     <g id="text_7">
      <!-- 12000 -->
      <g transform="translate(460.113906 332.638438) scale(0.1 -0.1)">
       <use xlink:href="#DejaVuSans-31"/>
       <use xlink:href="#DejaVuSans-32" transform="translate(63.623047 0)"/>
       <use xlink:href="#DejaVuSans-30" transform="translate(127.246094 0)"/>
       <use xlink:href="#DejaVuSans-30" transform="translate(190.869141 0)"/>
       <use xlink:href="#DejaVuSans-30" transform="translate(254.492188 0)"/>
      </g>
     </g>
    </g>
    <g id="text_8">
     <!-- Number of flips -->
     <g transform="translate(234.707892 346.316563) scale(0.1 -0.1)">
      <defs>
       <path id="DejaVuSans-4e" d="M 628 4666 
L 1478 4666 
L 3547 763 
L 3547 4666 
L 4159 4666 
L 4159 0 
L 3309 0 
L 1241 3903 
L 1241 0 
L 628 0 
L 628 4666 
z
" transform="scale(0.015625)"/>
       <path id="DejaVuSans-75" d="M 544 1381 
L 544 3500 
L 1119 3500 
L 1119 1403 
Q 1119 906 1312 657 
Q 1506 409 1894 409 
Q 2359 409 2629 706 
Q 2900 1003 2900 1516 
L 2900 3500 
L 3475 3500 
L 3475 0 
L 2900 0 
L 2900 538 
Q 2691 219 2414 64 
Q 2138 -91 1772 -91 
Q 1169 -91 856 284 
Q 544 659 544 1381 
z
M 1991 3584 
L 1991 3584 
z
" transform="scale(0.015625)"/>
       <path id="DejaVuSans-6d" d="M 3328 2828 
Q 3544 3216 3844 3400 
Q 4144 3584 4550 3584 
Q 5097 3584 5394 3201 
Q 5691 2819 5691 2113 
L 5691 0 
L 5113 0 
L 5113 2094 
Q 5113 2597 4934 2840 
Q 4756 3084 4391 3084 
Q 3944 3084 3684 2787 
Q 3425 2491 3425 1978 
L 3425 0 
L 2847 0 
L 2847 2094 
Q 2847 2600 2669 2842 
Q 2491 3084 2119 3084 
Q 1678 3084 1418 2786 
Q 1159 2488 1159 1978 
L 1159 0 
L 581 0 
L 581 3500 
L 1159 3500 
L 1159 2956 
Q 1356 3278 1631 3431 
Q 1906 3584 2284 3584 
Q 2666 3584 2933 3390 
Q 3200 3197 3328 2828 
z
" transform="scale(0.015625)"/>
       <path id="DejaVuSans-62" d="M 3116 1747 
Q 3116 2381 2855 2742 
Q 2594 3103 2138 3103 
Q 1681 3103 1420 2742 
Q 1159 2381 1159 1747 
Q 1159 1113 1420 752 
Q 1681 391 2138 391 
Q 2594 391 2855 752 
Q 3116 1113 3116 1747 
z
M 1159 2969 
Q 1341 3281 1617 3432 
Q 1894 3584 2278 3584 
Q 2916 3584 3314 3078 
Q 3713 2572 3713 1747 
Q 3713 922 3314 415 
Q 2916 -91 2278 -91 
Q 1894 -91 1617 61 
Q 1341 213 1159 525 
L 1159 0 
L 581 0 
L 581 4863 
L 1159 4863 
L 1159 2969 
z
" transform="scale(0.015625)"/>
       <path id="DejaVuSans-65" d="M 3597 1894 
L 3597 1613 
L 953 1613 
Q 991 1019 1311 708 
Q 1631 397 2203 397 
Q 2534 397 2845 478 
Q 3156 559 3463 722 
L 3463 178 
Q 3153 47 2828 -22 
Q 2503 -91 2169 -91 
Q 1331 -91 842 396 
Q 353 884 353 1716 
Q 353 2575 817 3079 
Q 1281 3584 2069 3584 
Q 2775 3584 3186 3129 
Q 3597 2675 3597 1894 
z
M 3022 2063 
Q 3016 2534 2758 2815 
Q 2500 3097 2075 3097 
Q 1594 3097 1305 2825 
Q 1016 2553 972 2059 
L 3022 2063 
z
" transform="scale(0.015625)"/>
       <path id="DejaVuSans-72" d="M 2631 2963 
Q 2534 3019 2420 3045 
Q 2306 3072 2169 3072 
Q 1681 3072 1420 2755 
Q 1159 2438 1159 1844 
L 1159 0 
L 581 0 
L 581 3500 
L 1159 3500 
L 1159 2956 
Q 1341 3275 1631 3429 
Q 1922 3584 2338 3584 
Q 2397 3584 2469 3576 
Q 2541 3569 2628 3553 
L 2631 2963 
z
" transform="scale(0.015625)"/>
       <path id="DejaVuSans-20" transform="scale(0.015625)"/>
       <path id="DejaVuSans-6f" d="M 1959 3097 
Q 1497 3097 1228 2736 
Q 959 2375 959 1747 
Q 959 1119 1226 758 
Q 1494 397 1959 397 
Q 2419 397 2687 759 
Q 2956 1122 2956 1747 
Q 2956 2369 2687 2733 
Q 2419 3097 1959 3097 
z
M 1959 3584 
Q 2709 3584 3137 3096 
Q 3566 2609 3566 1747 
Q 3566 888 3137 398 
Q 2709 -91 1959 -91 
Q 1206 -91 779 398 
Q 353 888 353 1747 
Q 353 2609 779 3096 
Q 1206 3584 1959 3584 
z
" transform="scale(0.015625)"/>
       <path id="DejaVuSans-66" d="M 2375 4863 
L 2375 4384 
L 1825 4384 
Q 1516 4384 1395 4259 
Q 1275 4134 1275 3809 
L 1275 3500 
L 2222 3500 
L 2222 3053 
L 1275 3053 
L 1275 0 
L 697 0 
L 697 3053 
L 147 3053 
L 147 3500 
L 697 3500 
L 697 3744 
Q 697 4328 969 4595 
Q 1241 4863 1831 4863 
L 2375 4863 
z
" transform="scale(0.015625)"/>
       <path id="DejaVuSans-6c" d="M 603 4863 
L 1178 4863 
L 1178 0 
L 603 0 
L 603 4863 
z
" transform="scale(0.015625)"/>
       <path id="DejaVuSans-69" d="M 603 3500 
L 1178 3500 
L 1178 0 
L 603 0 
L 603 3500 
z
M 603 4863 
L 1178 4863 
L 1178 4134 
L 603 4134 
L 603 4863 
z
" transform="scale(0.015625)"/>
       <path id="DejaVuSans-70" d="M 1159 525 
L 1159 -1331 
L 581 -1331 
L 581 3500 
L 1159 3500 
L 1159 2969 
Q 1341 3281 1617 3432 
Q 1894 3584 2278 3584 
Q 2916 3584 3314 3078 
Q 3713 2572 3713 1747 
Q 3713 922 3314 415 
Q 2916 -91 2278 -91 
Q 1894 -91 1617 61 
Q 1341 213 1159 525 
z
M 3116 1747 
Q 3116 2381 2855 2742 
Q 2594 3103 2138 3103 
Q 1681 3103 1420 2742 
Q 1159 2381 1159 1747 
Q 1159 1113 1420 752 
Q 1681 391 2138 391 
Q 2594 391 2855 752 
Q 3116 1113 3116 1747 
z
" transform="scale(0.015625)"/>
       <path id="DejaVuSans-73" d="M 2834 3397 
L 2834 2853 
Q 2591 2978 2328 3040 
Q 2066 3103 1784 3103 
Q 1356 3103 1142 2972 
Q 928 2841 928 2578 
Q 928 2378 1081 2264 
Q 1234 2150 1697 2047 
L 1894 2003 
Q 2506 1872 2764 1633 
Q 3022 1394 3022 966 
Q 3022 478 2636 193 
Q 2250 -91 1575 -91 
Q 1294 -91 989 -36 
Q 684 19 347 128 
L 347 722 
Q 666 556 975 473 
Q 1284 391 1588 391 
Q 1994 391 2212 530 
Q 2431 669 2431 922 
Q 2431 1156 2273 1281 
Q 2116 1406 1581 1522 
L 1381 1569 
Q 847 1681 609 1914 
Q 372 2147 372 2553 
Q 372 3047 722 3315 
Q 1072 3584 1716 3584 
Q 2034 3584 2315 3537 
Q 2597 3491 2834 3397 
z
" transform="scale(0.015625)"/>
      </defs>
      <use xlink:href="#DejaVuSans-4e"/>
      <use xlink:href="#DejaVuSans-75" transform="translate(74.804688 0)"/>
      <use xlink:href="#DejaVuSans-6d" transform="translate(138.183594 0)"/>
      <use xlink:href="#DejaVuSans-62" transform="translate(235.595703 0)"/>
      <use xlink:href="#DejaVuSans-65" transform="translate(299.072266 0)"/>
      <use xlink:href="#DejaVuSans-72" transform="translate(360.595703 0)"/>
      <use xlink:href="#DejaVuSans-20" transform="translate(401.708984 0)"/>
      <use xlink:href="#DejaVuSans-6f" transform="translate(433.496094 0)"/>
      <use xlink:href="#DejaVuSans-66" transform="translate(494.677734 0)"/>
      <use xlink:href="#DejaVuSans-20" transform="translate(529.882812 0)"/>
      <use xlink:href="#DejaVuSans-66" transform="translate(561.669922 0)"/>
      <use xlink:href="#DejaVuSans-6c" transform="translate(596.875 0)"/>
      <use xlink:href="#DejaVuSans-69" transform="translate(624.658203 0)"/>
      <use xlink:href="#DejaVuSans-70" transform="translate(652.441406 0)"/>
      <use xlink:href="#DejaVuSans-73" transform="translate(715.917969 0)"/>
     </g>
    </g>
   </g>
   <g id="matplotlib.axis_2">
    <g id="ytick_1">
     <g id="line2d_8">
      <defs>
       <path id="m942f2291d9" d="M 0 0 
L -3.5 0 
" style="stroke: #000000; stroke-width: 0.8"/>
      </defs>
      <g>
       <use xlink:href="#m942f2291d9" x="57.44" y="304.74" style="stroke: #000000; stroke-width: 0.8"/>
      </g>
     </g>
     <g id="text_9">
      <!-- 0 -->
      <g transform="translate(44.0775 308.539219) scale(0.1 -0.1)">
       <use xlink:href="#DejaVuSans-30"/>
      </g>
     </g>
    </g>
    <g id="ytick_2">
     <g id="line2d_9">
      <g>
       <use xlink:href="#m942f2291d9" x="57.44" y="246.674076" style="stroke: #000000; stroke-width: 0.8"/>
      </g>
     </g>
     <g id="text_10">
      <!-- 1000 -->
      <g transform="translate(24.99 250.473294) scale(0.1 -0.1)">
       <use xlink:href="#DejaVuSans-31"/>
       <use xlink:href="#DejaVuSans-30" transform="translate(63.623047 0)"/>
       <use xlink:href="#DejaVuSans-30" transform="translate(127.246094 0)"/>
       <use xlink:href="#DejaVuSans-30" transform="translate(190.869141 0)"/>
      </g>
     </g>
    </g>
    <g id="ytick_3">
     <g id="line2d_10">
      <g>
       <use xlink:href="#m942f2291d9" x="57.44" y="188.608151" style="stroke: #000000; stroke-width: 0.8"/>
      </g>
     </g>
     <g id="text_11">
      <!-- 2000 -->
      <g transform="translate(24.99 192.40737) scale(0.1 -0.1)">
       <use xlink:href="#DejaVuSans-32"/>
       <use xlink:href="#DejaVuSans-30" transform="translate(63.623047 0)"/>
       <use xlink:href="#DejaVuSans-30" transform="translate(127.246094 0)"/>
       <use xlink:href="#DejaVuSans-30" transform="translate(190.869141 0)"/>
      </g>
     </g>
    </g>
    <g id="ytick_4">
     <g id="line2d_11">
      <g>
       <use xlink:href="#m942f2291d9" x="57.44" y="130.542227" style="stroke: #000000; stroke-width: 0.8"/>
      </g>
     </g>
     <g id="text_12">
      <!-- 3000 -->
      <g transform="translate(24.99 134.341445) scale(0.1 -0.1)">
       <defs>
        <path id="DejaVuSans-33" d="M 2597 2516 
Q 3050 2419 3304 2112 
Q 3559 1806 3559 1356 
Q 3559 666 3084 287 
Q 2609 -91 1734 -91 
Q 1441 -91 1130 -33 
Q 819 25 488 141 
L 488 750 
Q 750 597 1062 519 
Q 1375 441 1716 441 
Q 2309 441 2620 675 
Q 2931 909 2931 1356 
Q 2931 1769 2642 2001 
Q 2353 2234 1838 2234 
L 1294 2234 
L 1294 2753 
L 1863 2753 
Q 2328 2753 2575 2939 
Q 2822 3125 2822 3475 
Q 2822 3834 2567 4026 
Q 2313 4219 1838 4219 
Q 1578 4219 1281 4162 
Q 984 4106 628 3988 
L 628 4550 
Q 988 4650 1302 4700 
Q 1616 4750 1894 4750 
Q 2613 4750 3031 4423 
Q 3450 4097 3450 3541 
Q 3450 3153 3228 2886 
Q 3006 2619 2597 2516 
z
" transform="scale(0.015625)"/>
       </defs>
       <use xlink:href="#DejaVuSans-33"/>
       <use xlink:href="#DejaVuSans-30" transform="translate(63.623047 0)"/>
       <use xlink:href="#DejaVuSans-30" transform="translate(127.246094 0)"/>
       <use xlink:href="#DejaVuSans-30" transform="translate(190.869141 0)"/>
      </g>
     </g>
    </g>
    <g id="ytick_5">
     <g id="line2d_12">
      <g>
       <use xlink:href="#m942f2291d9" x="57.44" y="72.476302" style="stroke: #000000; stroke-width: 0.8"/>
      </g>
     </g>
     <g id="text_13">
      <!-- 4000 -->
      <g transform="translate(24.99 76.275521) scale(0.1 -0.1)">
       <use xlink:href="#DejaVuSans-34"/>
       <use xlink:href="#DejaVuSans-30" transform="translate(63.623047 0)"/>
       <use xlink:href="#DejaVuSans-30" transform="translate(127.246094 0)"/>
       <use xlink:href="#DejaVuSans-30" transform="translate(190.869141 0)"/>
      </g>
     </g>
    </g>
    <g id="text_14">
     <!-- Parsimony -->
     <g transform="translate(18.910313 197.700938) rotate(-90) scale(0.1 -0.1)">
      <defs>
       <path id="DejaVuSans-50" d="M 1259 4147 
L 1259 2394 
L 2053 2394 
Q 2494 2394 2734 2622 
Q 2975 2850 2975 3272 
Q 2975 3691 2734 3919 
Q 2494 4147 2053 4147 
L 1259 4147 
z
M 628 4666 
L 2053 4666 
Q 2838 4666 3239 4311 
Q 3641 3956 3641 3272 
Q 3641 2581 3239 2228 
Q 2838 1875 2053 1875 
L 1259 1875 
L 1259 0 
L 628 0 
L 628 4666 
z
" transform="scale(0.015625)"/>
       <path id="DejaVuSans-61" d="M 2194 1759 
Q 1497 1759 1228 1600 
Q 959 1441 959 1056 
Q 959 750 1161 570 
Q 1363 391 1709 391 
Q 2188 391 2477 730 
Q 2766 1069 2766 1631 
L 2766 1759 
L 2194 1759 
z
M 3341 1997 
L 3341 0 
L 2766 0 
L 2766 531 
Q 2569 213 2275 61 
Q 1981 -91 1556 -91 
Q 1019 -91 701 211 
Q 384 513 384 1019 
Q 384 1609 779 1909 
Q 1175 2209 1959 2209 
L 2766 2209 
L 2766 2266 
Q 2766 2663 2505 2880 
Q 2244 3097 1772 3097 
Q 1472 3097 1187 3025 
Q 903 2953 641 2809 
L 641 3341 
Q 956 3463 1253 3523 
Q 1550 3584 1831 3584 
Q 2591 3584 2966 3190 
Q 3341 2797 3341 1997 
z
" transform="scale(0.015625)"/>
       <path id="DejaVuSans-6e" d="M 3513 2113 
L 3513 0 
L 2938 0 
L 2938 2094 
Q 2938 2591 2744 2837 
Q 2550 3084 2163 3084 
Q 1697 3084 1428 2787 
Q 1159 2491 1159 1978 
L 1159 0 
L 581 0 
L 581 3500 
L 1159 3500 
L 1159 2956 
Q 1366 3272 1645 3428 
Q 1925 3584 2291 3584 
Q 2894 3584 3203 3211 
Q 3513 2838 3513 2113 
z
" transform="scale(0.015625)"/>
       <path id="DejaVuSans-79" d="M 2059 -325 
Q 1816 -950 1584 -1140 
Q 1353 -1331 966 -1331 
L 506 -1331 
L 506 -850 
L 844 -850 
Q 1081 -850 1212 -737 
Q 1344 -625 1503 -206 
L 1606 56 
L 191 3500 
L 800 3500 
L 1894 763 
L 2988 3500 
L 3597 3500 
L 2059 -325 
z
" transform="scale(0.015625)"/>
      </defs>
      <use xlink:href="#DejaVuSans-50"/>
      <use xlink:href="#DejaVuSans-61" transform="translate(55.802734 0)"/>
      <use xlink:href="#DejaVuSans-72" transform="translate(117.082031 0)"/>
      <use xlink:href="#DejaVuSans-73" transform="translate(158.195312 0)"/>
      <use xlink:href="#DejaVuSans-69" transform="translate(210.294922 0)"/>
      <use xlink:href="#DejaVuSans-6d" transform="translate(238.078125 0)"/>
      <use xlink:href="#DejaVuSans-6f" transform="translate(335.490234 0)"/>
      <use xlink:href="#DejaVuSans-6e" transform="translate(396.671875 0)"/>
      <use xlink:href="#DejaVuSans-79" transform="translate(460.050781 0)"/>
     </g>
    </g>
   </g>
   <g id="line2d_13">
    <path d="M 77.046243 38.74 
L 77.046243 38.74 
L 77.046243 38.74 
L 77.046243 38.74 
L 77.046243 38.74 
L 77.079491 38.856132 
L 77.046243 38.74 
L 77.046243 38.74 
L 77.046243 38.74 
L 77.046243 38.74 
L 77.079491 38.856132 
L 77.046243 38.74 
L 77.046243 38.74 
L 77.046243 38.74 
L 77.046243 38.74 
L 77.046243 38.74 
L 77.046243 38.74 
L 79.174104 46.172438 
L 81.734187 55.114591 
L 83.629313 61.734106 
L 89.248195 80.837795 
L 95.631778 99.99955 
L 97.859382 106.851329 
L 99.8875 111.728867 
L 103.179034 119.045174 
L 106.670056 126.535678 
L 108.066465 129.264776 
L 109.230139 131.35515 
L 109.861847 132.226138 
L 111.258256 134.432644 
L 112.8874 136.464951 
L 115.48073 139.310181 
L 118.273547 142.03928 
L 122.894995 146.626488 
L 129.976782 154.29119 
L 138.654465 161.433298 
L 145.470269 166.659232 
L 156.043078 172.988417 
L 177.321687 189.072678 
L 193.313891 200.105204 
L 211.666691 212.41518 
L 247.574343 231.809199 
L 251.165108 233.028583 
L 292.492156 250.274163 
L 339.039113 266.184226 
L 469.171104 304.74 
L 469.171104 304.74 
L 469.171104 304.74 
L 469.171104 304.74 
L 469.171104 304.74 
" clip-path="url(#p4a2e77cc9a)" style="fill: none; stroke: #0000ff; stroke-width: 1.5; stroke-linecap: square"/>
    <defs>
     <path id="m3102814c4f" d="M 0 3 
C 0.795609 3 1.55874 2.683901 2.12132 2.12132 
C 2.683901 1.55874 3 0.795609 3 0 
C 3 -0.795609 2.683901 -1.55874 2.12132 -2.12132 
C 1.55874 -2.683901 0.795609 -3 0 -3 
C -0.795609 -3 -1.55874 -2.683901 -2.12132 -2.12132 
C -2.683901 -1.55874 -3 -0.795609 -3 0 
C -3 0.795609 -2.683901 1.55874 -2.12132 2.12132 
C -1.55874 2.683901 -0.795609 3 0 3 
z
" style="stroke: #0000ff"/>
    </defs>
    <g clip-path="url(#p4a2e77cc9a)">
     <use xlink:href="#m3102814c4f" x="77.046243" y="38.74" style="fill: #0000ff; stroke: #0000ff"/>
     <use xlink:href="#m3102814c4f" x="77.046243" y="38.74" style="fill: #0000ff; stroke: #0000ff"/>
     <use xlink:href="#m3102814c4f" x="77.046243" y="38.74" style="fill: #0000ff; stroke: #0000ff"/>
     <use xlink:href="#m3102814c4f" x="77.046243" y="38.74" style="fill: #0000ff; stroke: #0000ff"/>
     <use xlink:href="#m3102814c4f" x="77.046243" y="38.74" style="fill: #0000ff; stroke: #0000ff"/>
     <use xlink:href="#m3102814c4f" x="77.079491" y="38.856132" style="fill: #0000ff; stroke: #0000ff"/>
     <use xlink:href="#m3102814c4f" x="77.046243" y="38.74" style="fill: #0000ff; stroke: #0000ff"/>
     <use xlink:href="#m3102814c4f" x="77.046243" y="38.74" style="fill: #0000ff; stroke: #0000ff"/>
     <use xlink:href="#m3102814c4f" x="77.046243" y="38.74" style="fill: #0000ff; stroke: #0000ff"/>
     <use xlink:href="#m3102814c4f" x="77.046243" y="38.74" style="fill: #0000ff; stroke: #0000ff"/>
     <use xlink:href="#m3102814c4f" x="77.079491" y="38.856132" style="fill: #0000ff; stroke: #0000ff"/>
     <use xlink:href="#m3102814c4f" x="77.046243" y="38.74" style="fill: #0000ff; stroke: #0000ff"/>
     <use xlink:href="#m3102814c4f" x="77.046243" y="38.74" style="fill: #0000ff; stroke: #0000ff"/>
     <use xlink:href="#m3102814c4f" x="77.046243" y="38.74" style="fill: #0000ff; stroke: #0000ff"/>
     <use xlink:href="#m3102814c4f" x="77.046243" y="38.74" style="fill: #0000ff; stroke: #0000ff"/>
     <use xlink:href="#m3102814c4f" x="77.046243" y="38.74" style="fill: #0000ff; stroke: #0000ff"/>
     <use xlink:href="#m3102814c4f" x="77.046243" y="38.74" style="fill: #0000ff; stroke: #0000ff"/>
     <use xlink:href="#m3102814c4f" x="79.174104" y="46.172438" style="fill: #0000ff; stroke: #0000ff"/>
     <use xlink:href="#m3102814c4f" x="81.734187" y="55.114591" style="fill: #0000ff; stroke: #0000ff"/>
     <use xlink:href="#m3102814c4f" x="83.629313" y="61.734106" style="fill: #0000ff; stroke: #0000ff"/>
     <use xlink:href="#m3102814c4f" x="89.248195" y="80.837795" style="fill: #0000ff; stroke: #0000ff"/>
     <use xlink:href="#m3102814c4f" x="95.631778" y="99.99955" style="fill: #0000ff; stroke: #0000ff"/>
     <use xlink:href="#m3102814c4f" x="97.859382" y="106.851329" style="fill: #0000ff; stroke: #0000ff"/>
     <use xlink:href="#m3102814c4f" x="99.8875" y="111.728867" style="fill: #0000ff; stroke: #0000ff"/>
     <use xlink:href="#m3102814c4f" x="103.179034" y="119.045174" style="fill: #0000ff; stroke: #0000ff"/>
     <use xlink:href="#m3102814c4f" x="106.670056" y="126.535678" style="fill: #0000ff; stroke: #0000ff"/>
     <use xlink:href="#m3102814c4f" x="108.066465" y="129.264776" style="fill: #0000ff; stroke: #0000ff"/>
     <use xlink:href="#m3102814c4f" x="109.230139" y="131.35515" style="fill: #0000ff; stroke: #0000ff"/>
     <use xlink:href="#m3102814c4f" x="109.861847" y="132.226138" style="fill: #0000ff; stroke: #0000ff"/>
     <use xlink:href="#m3102814c4f" x="111.258256" y="134.432644" style="fill: #0000ff; stroke: #0000ff"/>
     <use xlink:href="#m3102814c4f" x="112.8874" y="136.464951" style="fill: #0000ff; stroke: #0000ff"/>
     <use xlink:href="#m3102814c4f" x="115.48073" y="139.310181" style="fill: #0000ff; stroke: #0000ff"/>
     <use xlink:href="#m3102814c4f" x="118.273547" y="142.03928" style="fill: #0000ff; stroke: #0000ff"/>
     <use xlink:href="#m3102814c4f" x="122.894995" y="146.626488" style="fill: #0000ff; stroke: #0000ff"/>
     <use xlink:href="#m3102814c4f" x="129.976782" y="154.29119" style="fill: #0000ff; stroke: #0000ff"/>
     <use xlink:href="#m3102814c4f" x="138.654465" y="161.433298" style="fill: #0000ff; stroke: #0000ff"/>
     <use xlink:href="#m3102814c4f" x="145.470269" y="166.659232" style="fill: #0000ff; stroke: #0000ff"/>
     <use xlink:href="#m3102814c4f" x="156.043078" y="172.988417" style="fill: #0000ff; stroke: #0000ff"/>
     <use xlink:href="#m3102814c4f" x="177.321687" y="189.072678" style="fill: #0000ff; stroke: #0000ff"/>
     <use xlink:href="#m3102814c4f" x="193.313891" y="200.105204" style="fill: #0000ff; stroke: #0000ff"/>
     <use xlink:href="#m3102814c4f" x="211.666691" y="212.41518" style="fill: #0000ff; stroke: #0000ff"/>
     <use xlink:href="#m3102814c4f" x="247.574343" y="231.809199" style="fill: #0000ff; stroke: #0000ff"/>
     <use xlink:href="#m3102814c4f" x="251.165108" y="233.028583" style="fill: #0000ff; stroke: #0000ff"/>
     <use xlink:href="#m3102814c4f" x="292.492156" y="250.274163" style="fill: #0000ff; stroke: #0000ff"/>
     <use xlink:href="#m3102814c4f" x="339.039113" y="266.184226" style="fill: #0000ff; stroke: #0000ff"/>
     <use xlink:href="#m3102814c4f" x="469.171104" y="304.74" style="fill: #0000ff; stroke: #0000ff"/>
     <use xlink:href="#m3102814c4f" x="469.171104" y="304.74" style="fill: #0000ff; stroke: #0000ff"/>
     <use xlink:href="#m3102814c4f" x="469.171104" y="304.74" style="fill: #0000ff; stroke: #0000ff"/>
     <use xlink:href="#m3102814c4f" x="469.171104" y="304.74" style="fill: #0000ff; stroke: #0000ff"/>
     <use xlink:href="#m3102814c4f" x="469.171104" y="304.74" style="fill: #0000ff; stroke: #0000ff"/>
    </g>
   </g>
   <g id="line2d_14">
    <path d="M 193.313891 318.04 
L 193.313891 25.44 
" clip-path="url(#p4a2e77cc9a)" style="fill: none; stroke-dasharray: 5.55,2.4; stroke-dashoffset: 0; stroke: #ff0000; stroke-width: 1.5"/>
   </g>
   <g id="patch_3">
    <path d="M 57.44 318.04 
L 57.44 25.44 
" style="fill: none; stroke: #000000; stroke-width: 0.8; stroke-linejoin: miter; stroke-linecap: square"/>
   </g>
   <g id="patch_4">
    <path d="M 488.777347 318.04 
L 488.777347 25.44 
" style="fill: none; stroke: #000000; stroke-width: 0.8; stroke-linejoin: miter; stroke-linecap: square"/>
   </g>
   <g id="patch_5">
    <path d="M 57.44 318.04 
L 488.777347 318.04 
" style="fill: none; stroke: #000000; stroke-width: 0.8; stroke-linejoin: miter; stroke-linecap: square"/>
   </g>
   <g id="patch_6">
    <path d="M 57.44 25.44 
L 488.777347 25.44 
" style="fill: none; stroke: #000000; stroke-width: 0.8; stroke-linejoin: miter; stroke-linecap: square"/>
   </g>
   <g id="text_15">
    <!-- 0.00 -->
    <g transform="translate(66.717402 37.857663) rotate(-45) scale(0.06 -0.06)">
     <defs>
      <path id="DejaVuSans-2e" d="M 684 794 
L 1344 794 
L 1344 0 
L 684 0 
L 684 794 
z
" transform="scale(0.015625)"/>
     </defs>
     <use xlink:href="#DejaVuSans-30"/>
     <use xlink:href="#DejaVuSans-2e" transform="translate(63.623047 0)"/>
     <use xlink:href="#DejaVuSans-30" transform="translate(95.410156 0)"/>
     <use xlink:href="#DejaVuSans-30" transform="translate(159.033203 0)"/>
    </g>
   </g>
   <g id="text_16">
    <!-- 0.02 -->
    <g transform="translate(66.717402 37.857663) rotate(-45) scale(0.06 -0.06)">
     <use xlink:href="#DejaVuSans-30"/>
     <use xlink:href="#DejaVuSans-2e" transform="translate(63.623047 0)"/>
     <use xlink:href="#DejaVuSans-30" transform="translate(95.410156 0)"/>
     <use xlink:href="#DejaVuSans-32" transform="translate(159.033203 0)"/>
    </g>
   </g>
   <g id="text_17">
    <!-- 0.04 -->
    <g transform="translate(66.717402 37.857663) rotate(-45) scale(0.06 -0.06)">
     <use xlink:href="#DejaVuSans-30"/>
     <use xlink:href="#DejaVuSans-2e" transform="translate(63.623047 0)"/>
     <use xlink:href="#DejaVuSans-30" transform="translate(95.410156 0)"/>
     <use xlink:href="#DejaVuSans-34" transform="translate(159.033203 0)"/>
    </g>
   </g>
   <g id="text_18">
    <!-- 0.06 -->
    <g transform="translate(66.717402 37.857663) rotate(-45) scale(0.06 -0.06)">
     <use xlink:href="#DejaVuSans-30"/>
     <use xlink:href="#DejaVuSans-2e" transform="translate(63.623047 0)"/>
     <use xlink:href="#DejaVuSans-30" transform="translate(95.410156 0)"/>
     <use xlink:href="#DejaVuSans-36" transform="translate(159.033203 0)"/>
    </g>
   </g>
   <g id="text_19">
    <!-- 0.08 -->
    <g transform="translate(66.717402 37.857663) rotate(-45) scale(0.06 -0.06)">
     <use xlink:href="#DejaVuSans-30"/>
     <use xlink:href="#DejaVuSans-2e" transform="translate(63.623047 0)"/>
     <use xlink:href="#DejaVuSans-30" transform="translate(95.410156 0)"/>
     <use xlink:href="#DejaVuSans-38" transform="translate(159.033203 0)"/>
    </g>
   </g>
   <g id="text_20">
    <!-- 0.10 -->
    <g transform="translate(66.75065 37.973795) rotate(-45) scale(0.06 -0.06)">
     <use xlink:href="#DejaVuSans-30"/>
     <use xlink:href="#DejaVuSans-2e" transform="translate(63.623047 0)"/>
     <use xlink:href="#DejaVuSans-31" transform="translate(95.410156 0)"/>
     <use xlink:href="#DejaVuSans-30" transform="translate(159.033203 0)"/>
    </g>
   </g>
   <g id="text_21">
    <!-- 0.12 -->
    <g transform="translate(66.717402 37.857663) rotate(-45) scale(0.06 -0.06)">
     <use xlink:href="#DejaVuSans-30"/>
     <use xlink:href="#DejaVuSans-2e" transform="translate(63.623047 0)"/>
     <use xlink:href="#DejaVuSans-31" transform="translate(95.410156 0)"/>
     <use xlink:href="#DejaVuSans-32" transform="translate(159.033203 0)"/>
    </g>
   </g>
   <g id="text_22">
    <!-- 0.14 -->
    <g transform="translate(66.717402 37.857663) rotate(-45) scale(0.06 -0.06)">
     <use xlink:href="#DejaVuSans-30"/>
     <use xlink:href="#DejaVuSans-2e" transform="translate(63.623047 0)"/>
     <use xlink:href="#DejaVuSans-31" transform="translate(95.410156 0)"/>
     <use xlink:href="#DejaVuSans-34" transform="translate(159.033203 0)"/>
    </g>
   </g>
   <g id="text_23">
    <!-- 0.16 -->
    <g transform="translate(66.717402 37.857663) rotate(-45) scale(0.06 -0.06)">
     <use xlink:href="#DejaVuSans-30"/>
     <use xlink:href="#DejaVuSans-2e" transform="translate(63.623047 0)"/>
     <use xlink:href="#DejaVuSans-31" transform="translate(95.410156 0)"/>
     <use xlink:href="#DejaVuSans-36" transform="translate(159.033203 0)"/>
    </g>
   </g>
   <g id="text_24">
    <!-- 0.18 -->
    <g transform="translate(66.717402 37.857663) rotate(-45) scale(0.06 -0.06)">
     <use xlink:href="#DejaVuSans-30"/>
     <use xlink:href="#DejaVuSans-2e" transform="translate(63.623047 0)"/>
     <use xlink:href="#DejaVuSans-31" transform="translate(95.410156 0)"/>
     <use xlink:href="#DejaVuSans-38" transform="translate(159.033203 0)"/>
    </g>
   </g>
   <g id="text_25">
    <!-- 0.20 -->
    <g transform="translate(66.75065 37.973795) rotate(-45) scale(0.06 -0.06)">
     <use xlink:href="#DejaVuSans-30"/>
     <use xlink:href="#DejaVuSans-2e" transform="translate(63.623047 0)"/>
     <use xlink:href="#DejaVuSans-32" transform="translate(95.410156 0)"/>
     <use xlink:href="#DejaVuSans-30" transform="translate(159.033203 0)"/>
    </g>
   </g>
   <g id="text_26">
    <!-- 0.22 -->
    <g transform="translate(66.717402 37.857663) rotate(-45) scale(0.06 -0.06)">
     <use xlink:href="#DejaVuSans-30"/>
     <use xlink:href="#DejaVuSans-2e" transform="translate(63.623047 0)"/>
     <use xlink:href="#DejaVuSans-32" transform="translate(95.410156 0)"/>
     <use xlink:href="#DejaVuSans-32" transform="translate(159.033203 0)"/>
    </g>
   </g>
   <g id="text_27">
    <!-- 0.24 -->
    <g transform="translate(66.717402 37.857663) rotate(-45) scale(0.06 -0.06)">
     <use xlink:href="#DejaVuSans-30"/>
     <use xlink:href="#DejaVuSans-2e" transform="translate(63.623047 0)"/>
     <use xlink:href="#DejaVuSans-32" transform="translate(95.410156 0)"/>
     <use xlink:href="#DejaVuSans-34" transform="translate(159.033203 0)"/>
    </g>
   </g>
   <g id="text_28">
    <!-- 0.27 -->
    <g transform="translate(66.717402 37.857663) rotate(-45) scale(0.06 -0.06)">
     <defs>
      <path id="DejaVuSans-37" d="M 525 4666 
L 3525 4666 
L 3525 4397 
L 1831 0 
L 1172 0 
L 2766 4134 
L 525 4134 
L 525 4666 
z
" transform="scale(0.015625)"/>
     </defs>
     <use xlink:href="#DejaVuSans-30"/>
     <use xlink:href="#DejaVuSans-2e" transform="translate(63.623047 0)"/>
     <use xlink:href="#DejaVuSans-32" transform="translate(95.410156 0)"/>
     <use xlink:href="#DejaVuSans-37" transform="translate(159.033203 0)"/>
    </g>
   </g>
   <g id="text_29">
    <!-- 0.29 -->
    <g transform="translate(66.717402 37.857663) rotate(-45) scale(0.06 -0.06)">
     <defs>
      <path id="DejaVuSans-39" d="M 703 97 
L 703 672 
Q 941 559 1184 500 
Q 1428 441 1663 441 
Q 2288 441 2617 861 
Q 2947 1281 2994 2138 
Q 2813 1869 2534 1725 
Q 2256 1581 1919 1581 
Q 1219 1581 811 2004 
Q 403 2428 403 3163 
Q 403 3881 828 4315 
Q 1253 4750 1959 4750 
Q 2769 4750 3195 4129 
Q 3622 3509 3622 2328 
Q 3622 1225 3098 567 
Q 2575 -91 1691 -91 
Q 1453 -91 1209 -44 
Q 966 3 703 97 
z
M 1959 2075 
Q 2384 2075 2632 2365 
Q 2881 2656 2881 3163 
Q 2881 3666 2632 3958 
Q 2384 4250 1959 4250 
Q 1534 4250 1286 3958 
Q 1038 3666 1038 3163 
Q 1038 2656 1286 2365 
Q 1534 2075 1959 2075 
z
" transform="scale(0.015625)"/>
     </defs>
     <use xlink:href="#DejaVuSans-30"/>
     <use xlink:href="#DejaVuSans-2e" transform="translate(63.623047 0)"/>
     <use xlink:href="#DejaVuSans-32" transform="translate(95.410156 0)"/>
     <use xlink:href="#DejaVuSans-39" transform="translate(159.033203 0)"/>
    </g>
   </g>
   <g id="text_30">
    <!-- 0.31 -->
    <g transform="translate(66.717402 37.857663) rotate(-45) scale(0.06 -0.06)">
     <use xlink:href="#DejaVuSans-30"/>
     <use xlink:href="#DejaVuSans-2e" transform="translate(63.623047 0)"/>
     <use xlink:href="#DejaVuSans-33" transform="translate(95.410156 0)"/>
     <use xlink:href="#DejaVuSans-31" transform="translate(159.033203 0)"/>
    </g>
   </g>
   <g id="text_31">
    <!-- 0.33 -->
    <g transform="translate(66.717402 37.857663) rotate(-45) scale(0.06 -0.06)">
     <use xlink:href="#DejaVuSans-30"/>
     <use xlink:href="#DejaVuSans-2e" transform="translate(63.623047 0)"/>
     <use xlink:href="#DejaVuSans-33" transform="translate(95.410156 0)"/>
     <use xlink:href="#DejaVuSans-33" transform="translate(159.033203 0)"/>
    </g>
   </g>
   <g id="text_32">
    <!-- 0.35 -->
    <g transform="translate(68.845263 45.290102) rotate(-45) scale(0.06 -0.06)">
     <defs>
      <path id="DejaVuSans-35" d="M 691 4666 
L 3169 4666 
L 3169 4134 
L 1269 4134 
L 1269 2991 
Q 1406 3038 1543 3061 
Q 1681 3084 1819 3084 
Q 2600 3084 3056 2656 
Q 3513 2228 3513 1497 
Q 3513 744 3044 326 
Q 2575 -91 1722 -91 
Q 1428 -91 1123 -41 
Q 819 9 494 109 
L 494 744 
Q 775 591 1075 516 
Q 1375 441 1709 441 
Q 2250 441 2565 725 
Q 2881 1009 2881 1497 
Q 2881 1984 2565 2268 
Q 2250 2553 1709 2553 
Q 1456 2553 1204 2497 
Q 953 2441 691 2322 
L 691 4666 
z
" transform="scale(0.015625)"/>
     </defs>
     <use xlink:href="#DejaVuSans-30"/>
     <use xlink:href="#DejaVuSans-2e" transform="translate(63.623047 0)"/>
     <use xlink:href="#DejaVuSans-33" transform="translate(95.410156 0)"/>
     <use xlink:href="#DejaVuSans-35" transform="translate(159.033203 0)"/>
    </g>
   </g>
   <g id="text_33">
    <!-- 0.37 -->
    <g transform="translate(71.405345 54.232254) rotate(-45) scale(0.06 -0.06)">
     <use xlink:href="#DejaVuSans-30"/>
     <use xlink:href="#DejaVuSans-2e" transform="translate(63.623047 0)"/>
     <use xlink:href="#DejaVuSans-33" transform="translate(95.410156 0)"/>
     <use xlink:href="#DejaVuSans-37" transform="translate(159.033203 0)"/>
    </g>
   </g>
   <g id="text_34">
    <!-- 0.39 -->
    <g transform="translate(73.300471 60.851769) rotate(-45) scale(0.06 -0.06)">
     <use xlink:href="#DejaVuSans-30"/>
     <use xlink:href="#DejaVuSans-2e" transform="translate(63.623047 0)"/>
     <use xlink:href="#DejaVuSans-33" transform="translate(95.410156 0)"/>
     <use xlink:href="#DejaVuSans-39" transform="translate(159.033203 0)"/>
    </g>
   </g>
   <g id="text_35">
    <!-- 0.41 -->
    <g transform="translate(78.919354 79.955459) rotate(-45) scale(0.06 -0.06)">
     <use xlink:href="#DejaVuSans-30"/>
     <use xlink:href="#DejaVuSans-2e" transform="translate(63.623047 0)"/>
     <use xlink:href="#DejaVuSans-34" transform="translate(95.410156 0)"/>
     <use xlink:href="#DejaVuSans-31" transform="translate(159.033203 0)"/>
    </g>
   </g>
   <g id="text_36">
    <!-- 0.43 -->
    <g transform="translate(85.302937 99.117214) rotate(-45) scale(0.06 -0.06)">
     <use xlink:href="#DejaVuSans-30"/>
     <use xlink:href="#DejaVuSans-2e" transform="translate(63.623047 0)"/>
     <use xlink:href="#DejaVuSans-34" transform="translate(95.410156 0)"/>
     <use xlink:href="#DejaVuSans-33" transform="translate(159.033203 0)"/>
    </g>
   </g>
   <g id="text_37">
    <!-- 0.45 -->
    <g transform="translate(87.530541 105.968993) rotate(-45) scale(0.06 -0.06)">
     <use xlink:href="#DejaVuSans-30"/>
     <use xlink:href="#DejaVuSans-2e" transform="translate(63.623047 0)"/>
     <use xlink:href="#DejaVuSans-34" transform="translate(95.410156 0)"/>
     <use xlink:href="#DejaVuSans-35" transform="translate(159.033203 0)"/>
    </g>
   </g>
   <g id="text_38">
    <!-- 0.47 -->
    <g transform="translate(89.558658 110.84653) rotate(-45) scale(0.06 -0.06)">
     <use xlink:href="#DejaVuSans-30"/>
     <use xlink:href="#DejaVuSans-2e" transform="translate(63.623047 0)"/>
     <use xlink:href="#DejaVuSans-34" transform="translate(95.410156 0)"/>
     <use xlink:href="#DejaVuSans-37" transform="translate(159.033203 0)"/>
    </g>
   </g>
   <g id="text_39">
    <!-- 0.49 -->
    <g transform="translate(92.850193 118.162837) rotate(-45) scale(0.06 -0.06)">
     <use xlink:href="#DejaVuSans-30"/>
     <use xlink:href="#DejaVuSans-2e" transform="translate(63.623047 0)"/>
     <use xlink:href="#DejaVuSans-34" transform="translate(95.410156 0)"/>
     <use xlink:href="#DejaVuSans-39" transform="translate(159.033203 0)"/>
    </g>
   </g>
   <g id="text_40">
    <!-- 0.51 -->
    <g transform="translate(96.341215 125.653341) rotate(-45) scale(0.06 -0.06)">
     <use xlink:href="#DejaVuSans-30"/>
     <use xlink:href="#DejaVuSans-2e" transform="translate(63.623047 0)"/>
     <use xlink:href="#DejaVuSans-35" transform="translate(95.410156 0)"/>
     <use xlink:href="#DejaVuSans-31" transform="translate(159.033203 0)"/>
    </g>
   </g>
   <g id="text_41">
    <!-- 0.53 -->
    <g transform="translate(97.737623 128.38244) rotate(-45) scale(0.06 -0.06)">
     <use xlink:href="#DejaVuSans-30"/>
     <use xlink:href="#DejaVuSans-2e" transform="translate(63.623047 0)"/>
     <use xlink:href="#DejaVuSans-35" transform="translate(95.410156 0)"/>
     <use xlink:href="#DejaVuSans-33" transform="translate(159.033203 0)"/>
    </g>
   </g>
   <g id="text_42">
    <!-- 0.55 -->
    <g transform="translate(98.901297 130.472813) rotate(-45) scale(0.06 -0.06)">
     <use xlink:href="#DejaVuSans-30"/>
     <use xlink:href="#DejaVuSans-2e" transform="translate(63.623047 0)"/>
     <use xlink:href="#DejaVuSans-35" transform="translate(95.410156 0)"/>
     <use xlink:href="#DejaVuSans-35" transform="translate(159.033203 0)"/>
    </g>
   </g>
   <g id="text_43">
    <!-- 0.57 -->
    <g transform="translate(99.533006 131.343802) rotate(-45) scale(0.06 -0.06)">
     <use xlink:href="#DejaVuSans-30"/>
     <use xlink:href="#DejaVuSans-2e" transform="translate(63.623047 0)"/>
     <use xlink:href="#DejaVuSans-35" transform="translate(95.410156 0)"/>
     <use xlink:href="#DejaVuSans-37" transform="translate(159.033203 0)"/>
    </g>
   </g>
   <g id="text_44">
    <!-- 0.59 -->
    <g transform="translate(100.929415 133.550307) rotate(-45) scale(0.06 -0.06)">
     <use xlink:href="#DejaVuSans-30"/>
     <use xlink:href="#DejaVuSans-2e" transform="translate(63.623047 0)"/>
     <use xlink:href="#DejaVuSans-35" transform="translate(95.410156 0)"/>
     <use xlink:href="#DejaVuSans-39" transform="translate(159.033203 0)"/>
    </g>
   </g>
   <g id="text_45">
    <!-- 0.61 -->
    <g transform="translate(102.558558 135.582614) rotate(-45) scale(0.06 -0.06)">
     <use xlink:href="#DejaVuSans-30"/>
     <use xlink:href="#DejaVuSans-2e" transform="translate(63.623047 0)"/>
     <use xlink:href="#DejaVuSans-36" transform="translate(95.410156 0)"/>
     <use xlink:href="#DejaVuSans-31" transform="translate(159.033203 0)"/>
    </g>
   </g>
   <g id="text_46">
    <!-- 0.63 -->
    <g transform="translate(105.151889 138.427845) rotate(-45) scale(0.06 -0.06)">
     <use xlink:href="#DejaVuSans-30"/>
     <use xlink:href="#DejaVuSans-2e" transform="translate(63.623047 0)"/>
     <use xlink:href="#DejaVuSans-36" transform="translate(95.410156 0)"/>
     <use xlink:href="#DejaVuSans-33" transform="translate(159.033203 0)"/>
    </g>
   </g>
   <g id="text_47">
    <!-- 0.65 -->
    <g transform="translate(107.944706 141.156943) rotate(-45) scale(0.06 -0.06)">
     <use xlink:href="#DejaVuSans-30"/>
     <use xlink:href="#DejaVuSans-2e" transform="translate(63.623047 0)"/>
     <use xlink:href="#DejaVuSans-36" transform="translate(95.410156 0)"/>
     <use xlink:href="#DejaVuSans-35" transform="translate(159.033203 0)"/>
    </g>
   </g>
   <g id="text_48">
    <!-- 0.67 -->
    <g transform="translate(112.566154 145.744151) rotate(-45) scale(0.06 -0.06)">
     <use xlink:href="#DejaVuSans-30"/>
     <use xlink:href="#DejaVuSans-2e" transform="translate(63.623047 0)"/>
     <use xlink:href="#DejaVuSans-36" transform="translate(95.410156 0)"/>
     <use xlink:href="#DejaVuSans-37" transform="translate(159.033203 0)"/>
    </g>
   </g>
   <g id="text_49">
    <!-- 0.69 -->
    <g transform="translate(119.647941 153.408853) rotate(-45) scale(0.06 -0.06)">
     <use xlink:href="#DejaVuSans-30"/>
     <use xlink:href="#DejaVuSans-2e" transform="translate(63.623047 0)"/>
     <use xlink:href="#DejaVuSans-36" transform="translate(95.410156 0)"/>
     <use xlink:href="#DejaVuSans-39" transform="translate(159.033203 0)"/>
    </g>
   </g>
   <g id="text_50">
    <!-- 0.71 -->
    <g transform="translate(128.325623 160.550962) rotate(-45) scale(0.06 -0.06)">
     <use xlink:href="#DejaVuSans-30"/>
     <use xlink:href="#DejaVuSans-2e" transform="translate(63.623047 0)"/>
     <use xlink:href="#DejaVuSans-37" transform="translate(95.410156 0)"/>
     <use xlink:href="#DejaVuSans-31" transform="translate(159.033203 0)"/>
    </g>
   </g>
   <g id="text_51">
    <!-- 0.73 -->
    <g transform="translate(135.141428 165.776895) rotate(-45) scale(0.06 -0.06)">
     <use xlink:href="#DejaVuSans-30"/>
     <use xlink:href="#DejaVuSans-2e" transform="translate(63.623047 0)"/>
     <use xlink:href="#DejaVuSans-37" transform="translate(95.410156 0)"/>
     <use xlink:href="#DejaVuSans-33" transform="translate(159.033203 0)"/>
    </g>
   </g>
   <g id="text_52">
    <!-- 0.76 -->
    <g transform="translate(145.714237 172.106081) rotate(-45) scale(0.06 -0.06)">
     <use xlink:href="#DejaVuSans-30"/>
     <use xlink:href="#DejaVuSans-2e" transform="translate(63.623047 0)"/>
     <use xlink:href="#DejaVuSans-37" transform="translate(95.410156 0)"/>
     <use xlink:href="#DejaVuSans-36" transform="translate(159.033203 0)"/>
    </g>
   </g>
   <g id="text_53">
    <!-- 0.78 -->
    <g transform="translate(166.992845 188.190342) rotate(-45) scale(0.06 -0.06)">
     <use xlink:href="#DejaVuSans-30"/>
     <use xlink:href="#DejaVuSans-2e" transform="translate(63.623047 0)"/>
     <use xlink:href="#DejaVuSans-37" transform="translate(95.410156 0)"/>
     <use xlink:href="#DejaVuSans-38" transform="translate(159.033203 0)"/>
    </g>
   </g>
   <g id="text_54">
    <!-- 0.80 -->
    <g transform="translate(182.98505 199.222867) rotate(-45) scale(0.06 -0.06)">
     <use xlink:href="#DejaVuSans-30"/>
     <use xlink:href="#DejaVuSans-2e" transform="translate(63.623047 0)"/>
     <use xlink:href="#DejaVuSans-38" transform="translate(95.410156 0)"/>
     <use xlink:href="#DejaVuSans-30" transform="translate(159.033203 0)"/>
    </g>
   </g>
   <g id="text_55">
    <!-- 0.82 -->
    <g transform="translate(201.33785 211.532843) rotate(-45) scale(0.06 -0.06)">
     <use xlink:href="#DejaVuSans-30"/>
     <use xlink:href="#DejaVuSans-2e" transform="translate(63.623047 0)"/>
     <use xlink:href="#DejaVuSans-38" transform="translate(95.410156 0)"/>
     <use xlink:href="#DejaVuSans-32" transform="translate(159.033203 0)"/>
    </g>
   </g>
   <g id="text_56">
    <!-- 0.84 -->
    <g transform="translate(237.245502 230.926862) rotate(-45) scale(0.06 -0.06)">
     <use xlink:href="#DejaVuSans-30"/>
     <use xlink:href="#DejaVuSans-2e" transform="translate(63.623047 0)"/>
     <use xlink:href="#DejaVuSans-38" transform="translate(95.410156 0)"/>
     <use xlink:href="#DejaVuSans-34" transform="translate(159.033203 0)"/>
    </g>
   </g>
   <g id="text_57">
    <!-- 0.86 -->
    <g transform="translate(240.836267 232.146247) rotate(-45) scale(0.06 -0.06)">
     <use xlink:href="#DejaVuSans-30"/>
     <use xlink:href="#DejaVuSans-2e" transform="translate(63.623047 0)"/>
     <use xlink:href="#DejaVuSans-38" transform="translate(95.410156 0)"/>
     <use xlink:href="#DejaVuSans-36" transform="translate(159.033203 0)"/>
    </g>
   </g>
   <g id="text_58">
    <!-- 0.88 -->
    <g transform="translate(282.163315 249.391826) rotate(-45) scale(0.06 -0.06)">
     <use xlink:href="#DejaVuSans-30"/>
     <use xlink:href="#DejaVuSans-2e" transform="translate(63.623047 0)"/>
     <use xlink:href="#DejaVuSans-38" transform="translate(95.410156 0)"/>
     <use xlink:href="#DejaVuSans-38" transform="translate(159.033203 0)"/>
    </g>
   </g>
   <g id="text_59">
    <!-- 0.90 -->
    <g transform="translate(328.710271 265.301889) rotate(-45) scale(0.06 -0.06)">
     <use xlink:href="#DejaVuSans-30"/>
     <use xlink:href="#DejaVuSans-2e" transform="translate(63.623047 0)"/>
     <use xlink:href="#DejaVuSans-39" transform="translate(95.410156 0)"/>
     <use xlink:href="#DejaVuSans-30" transform="translate(159.033203 0)"/>
    </g>
   </g>
   <g id="text_60">
    <!-- 0.92 -->
    <g transform="translate(458.842263 303.857663) rotate(-45) scale(0.06 -0.06)">
     <use xlink:href="#DejaVuSans-30"/>
     <use xlink:href="#DejaVuSans-2e" transform="translate(63.623047 0)"/>
     <use xlink:href="#DejaVuSans-39" transform="translate(95.410156 0)"/>
     <use xlink:href="#DejaVuSans-32" transform="translate(159.033203 0)"/>
    </g>
   </g>
   <g id="text_61">
    <!-- 0.94 -->
    <g transform="translate(458.842263 303.857663) rotate(-45) scale(0.06 -0.06)">
     <use xlink:href="#DejaVuSans-30"/>
     <use xlink:href="#DejaVuSans-2e" transform="translate(63.623047 0)"/>
     <use xlink:href="#DejaVuSans-39" transform="translate(95.410156 0)"/>
     <use xlink:href="#DejaVuSans-34" transform="translate(159.033203 0)"/>
    </g>
   </g>
   <g id="text_62">
    <!-- 0.96 -->
    <g transform="translate(458.842263 303.857663) rotate(-45) scale(0.06 -0.06)">
     <use xlink:href="#DejaVuSans-30"/>
     <use xlink:href="#DejaVuSans-2e" transform="translate(63.623047 0)"/>
     <use xlink:href="#DejaVuSans-39" transform="translate(95.410156 0)"/>
     <use xlink:href="#DejaVuSans-36" transform="translate(159.033203 0)"/>
    </g>
   </g>
   <g id="text_63">
    <!-- 0.98 -->
    <g transform="translate(458.842263 303.857663) rotate(-45) scale(0.06 -0.06)">
     <use xlink:href="#DejaVuSans-30"/>
     <use xlink:href="#DejaVuSans-2e" transform="translate(63.623047 0)"/>
     <use xlink:href="#DejaVuSans-39" transform="translate(95.410156 0)"/>
     <use xlink:href="#DejaVuSans-38" transform="translate(159.033203 0)"/>
    </g>
   </g>
   <g id="text_64">
    <!-- 1.00 -->
    <g transform="translate(458.842263 303.857663) rotate(-45) scale(0.06 -0.06)">
     <use xlink:href="#DejaVuSans-31"/>
     <use xlink:href="#DejaVuSans-2e" transform="translate(63.623047 0)"/>
     <use xlink:href="#DejaVuSans-30" transform="translate(95.410156 0)"/>
     <use xlink:href="#DejaVuSans-30" transform="translate(159.033203 0)"/>
    </g>
   </g>
   <g id="text_65">
    <!-- Parsimony vs Flips (λ sweep) -->
    <g transform="translate(186.473361 19.44) scale(0.12 -0.12)">
     <defs>
      <path id="DejaVuSans-76" d="M 191 3500 
L 800 3500 
L 1894 563 
L 2988 3500 
L 3597 3500 
L 2284 0 
L 1503 0 
L 191 3500 
z
" transform="scale(0.015625)"/>
      <path id="DejaVuSans-46" d="M 628 4666 
L 3309 4666 
L 3309 4134 
L 1259 4134 
L 1259 2759 
L 3109 2759 
L 3109 2228 
L 1259 2228 
L 1259 0 
L 628 0 
L 628 4666 
z
" transform="scale(0.015625)"/>
      <path id="DejaVuSans-28" d="M 1984 4856 
Q 1566 4138 1362 3434 
Q 1159 2731 1159 2009 
Q 1159 1288 1364 580 
Q 1569 -128 1984 -844 
L 1484 -844 
Q 1016 -109 783 600 
Q 550 1309 550 2009 
Q 550 2706 781 3412 
Q 1013 4119 1484 4856 
L 1984 4856 
z
" transform="scale(0.015625)"/>
      <path id="DejaVuSans-3bb" d="M 1981 4316 
L 3597 0 
L 2988 0 
L 2006 2588 
L 800 0 
L 191 0 
L 1725 3356 
L 1494 3975 
Q 1347 4369 1013 4369 
L 713 4369 
L 713 4863 
L 1078 4856 
Q 1784 4847 1981 4316 
z
" transform="scale(0.015625)"/>
      <path id="DejaVuSans-77" d="M 269 3500 
L 844 3500 
L 1563 769 
L 2278 3500 
L 2956 3500 
L 3675 769 
L 4391 3500 
L 4966 3500 
L 4050 0 
L 3372 0 
L 2619 2869 
L 1863 0 
L 1184 0 
L 269 3500 
z
" transform="scale(0.015625)"/>
      <path id="DejaVuSans-29" d="M 513 4856 
L 1013 4856 
Q 1481 4119 1714 3412 
Q 1947 2706 1947 2009 
Q 1947 1309 1714 600 
Q 1481 -109 1013 -844 
L 513 -844 
Q 928 -128 1133 580 
Q 1338 1288 1338 2009 
Q 1338 2731 1133 3434 
Q 928 4138 513 4856 
z
" transform="scale(0.015625)"/>
     </defs>
     <use xlink:href="#DejaVuSans-50"/>
     <use xlink:href="#DejaVuSans-61" transform="translate(55.802734 0)"/>
     <use xlink:href="#DejaVuSans-72" transform="translate(117.082031 0)"/>
     <use xlink:href="#DejaVuSans-73" transform="translate(158.195312 0)"/>
     <use xlink:href="#DejaVuSans-69" transform="translate(210.294922 0)"/>
     <use xlink:href="#DejaVuSans-6d" transform="translate(238.078125 0)"/>
     <use xlink:href="#DejaVuSans-6f" transform="translate(335.490234 0)"/>
     <use xlink:href="#DejaVuSans-6e" transform="translate(396.671875 0)"/>
     <use xlink:href="#DejaVuSans-79" transform="translate(460.050781 0)"/>
     <use xlink:href="#DejaVuSans-20" transform="translate(519.230469 0)"/>
     <use xlink:href="#DejaVuSans-76" transform="translate(551.017578 0)"/>
     <use xlink:href="#DejaVuSans-73" transform="translate(610.197266 0)"/>
     <use xlink:href="#DejaVuSans-20" transform="translate(662.296875 0)"/>
     <use xlink:href="#DejaVuSans-46" transform="translate(694.083984 0)"/>
     <use xlink:href="#DejaVuSans-6c" transform="translate(751.603516 0)"/>
     <use xlink:href="#DejaVuSans-69" transform="translate(779.386719 0)"/>
     <use xlink:href="#DejaVuSans-70" transform="translate(807.169922 0)"/>
     <use xlink:href="#DejaVuSans-73" transform="translate(870.646484 0)"/>
     <use xlink:href="#DejaVuSans-20" transform="translate(922.746094 0)"/>
     <use xlink:href="#DejaVuSans-28" transform="translate(954.533203 0)"/>
     <use xlink:href="#DejaVuSans-3bb" transform="translate(993.546875 0)"/>
     <use xlink:href="#DejaVuSans-20" transform="translate(1052.726562 0)"/>
     <use xlink:href="#DejaVuSans-73" transform="translate(1084.513672 0)"/>
     <use xlink:href="#DejaVuSans-77" transform="translate(1136.613281 0)"/>
     <use xlink:href="#DejaVuSans-65" transform="translate(1218.400391 0)"/>
     <use xlink:href="#DejaVuSans-65" transform="translate(1279.923828 0)"/>
     <use xlink:href="#DejaVuSans-70" transform="translate(1341.447266 0)"/>
     <use xlink:href="#DejaVuSans-29" transform="translate(1404.923828 0)"/>
    </g>
   </g>
   <g id="legend_1">
    <g id="patch_7">
     <path d="M 318.319535 62.79625 
L 481.777347 62.79625 
Q 483.777347 62.79625 483.777347 60.79625 
L 483.777347 32.44 
Q 483.777347 30.44 481.777347 30.44 
L 318.319535 30.44 
Q 316.319535 30.44 316.319535 32.44 
L 316.319535 60.79625 
Q 316.319535 62.79625 318.319535 62.79625 
z
" style="fill: #ffffff; opacity: 0.8; stroke: #cccccc; stroke-linejoin: miter"/>
    </g>
    <g id="line2d_15">
     <path d="M 320.319535 38.538437 
L 330.319535 38.538437 
L 340.319535 38.538437 
" style="fill: none; stroke: #0000ff; stroke-width: 1.5; stroke-linecap: square"/>
     <g>
      <use xlink:href="#m3102814c4f" x="330.319535" y="38.538437" style="fill: #0000ff; stroke: #0000ff"/>
     </g>
    </g>
    <g id="text_66">
     <!-- Parsimony vs flips -->
     <g transform="translate(348.319535 42.038437) scale(0.1 -0.1)">
      <use xlink:href="#DejaVuSans-50"/>
      <use xlink:href="#DejaVuSans-61" transform="translate(55.802734 0)"/>
      <use xlink:href="#DejaVuSans-72" transform="translate(117.082031 0)"/>
      <use xlink:href="#DejaVuSans-73" transform="translate(158.195312 0)"/>
      <use xlink:href="#DejaVuSans-69" transform="translate(210.294922 0)"/>
      <use xlink:href="#DejaVuSans-6d" transform="translate(238.078125 0)"/>
      <use xlink:href="#DejaVuSans-6f" transform="translate(335.490234 0)"/>
      <use xlink:href="#DejaVuSans-6e" transform="translate(396.671875 0)"/>
      <use xlink:href="#DejaVuSans-79" transform="translate(460.050781 0)"/>
      <use xlink:href="#DejaVuSans-20" transform="translate(519.230469 0)"/>
      <use xlink:href="#DejaVuSans-76" transform="translate(551.017578 0)"/>
      <use xlink:href="#DejaVuSans-73" transform="translate(610.197266 0)"/>
      <use xlink:href="#DejaVuSans-20" transform="translate(662.296875 0)"/>
      <use xlink:href="#DejaVuSans-66" transform="translate(694.083984 0)"/>
      <use xlink:href="#DejaVuSans-6c" transform="translate(729.289062 0)"/>
      <use xlink:href="#DejaVuSans-69" transform="translate(757.072266 0)"/>
      <use xlink:href="#DejaVuSans-70" transform="translate(784.855469 0)"/>
      <use xlink:href="#DejaVuSans-73" transform="translate(848.332031 0)"/>
     </g>
    </g>
    <g id="line2d_16">
     <path d="M 320.319535 53.216563 
L 330.319535 53.216563 
L 340.319535 53.216563 
" style="fill: none; stroke-dasharray: 5.55,2.4; stroke-dashoffset: 0; stroke: #ff0000; stroke-width: 1.5"/>
    </g>
    <g id="text_67">
     <!-- Elbow flip=3497, λ≈0.796 -->
     <g transform="translate(348.319535 56.716563) scale(0.1 -0.1)">
      <defs>
       <path id="DejaVuSans-45" d="M 628 4666 
L 3578 4666 
L 3578 4134 
L 1259 4134 
L 1259 2753 
L 3481 2753 
L 3481 2222 
L 1259 2222 
L 1259 531 
L 3634 531 
L 3634 0 
L 628 0 
L 628 4666 
z
" transform="scale(0.015625)"/>
       <path id="DejaVuSans-3d" d="M 678 2906 
L 4684 2906 
L 4684 2381 
L 678 2381 
L 678 2906 
z
M 678 1631 
L 4684 1631 
L 4684 1100 
L 678 1100 
L 678 1631 
z
" transform="scale(0.015625)"/>
       <path id="DejaVuSans-2c" d="M 750 794 
L 1409 794 
L 1409 256 
L 897 -744 
L 494 -744 
L 750 256 
L 750 794 
z
" transform="scale(0.015625)"/>
       <path id="DejaVuSans-2248" d="M 4684 1947 
L 4684 1388 
Q 4356 1144 4076 1036 
Q 3797 928 3494 928 
Q 3150 928 2694 1113 
Q 2663 1125 2641 1134 
Q 2622 1141 2575 1159 
Q 2091 1350 1797 1350 
Q 1522 1350 1253 1231 
Q 984 1113 678 850 
L 678 1409 
Q 1006 1653 1286 1761 
Q 1566 1869 1869 1869 
Q 2213 1869 2672 1684 
Q 2706 1669 2722 1663 
Q 2741 1656 2788 1638 
Q 3272 1447 3566 1447 
Q 3834 1447 4098 1564 
Q 4363 1681 4684 1947 
z
M 4684 3163 
L 4684 2606 
Q 4356 2359 4076 2251 
Q 3797 2144 3494 2144 
Q 3150 2144 2694 2328 
Q 2663 2341 2641 2350 
Q 2622 2356 2575 2375 
Q 2091 2566 1797 2566 
Q 1522 2566 1253 2447 
Q 984 2328 678 2069 
L 678 2625 
Q 1006 2869 1286 2976 
Q 1566 3084 1869 3084 
Q 2213 3084 2672 2900 
Q 2703 2888 2719 2881 
Q 2741 2872 2788 2853 
Q 3272 2663 3566 2663 
Q 3834 2663 4098 2780 
Q 4363 2897 4684 3163 
z
" transform="scale(0.015625)"/>
      </defs>
      <use xlink:href="#DejaVuSans-45"/>
      <use xlink:href="#DejaVuSans-6c" transform="translate(63.183594 0)"/>
      <use xlink:href="#DejaVuSans-62" transform="translate(90.966797 0)"/>
      <use xlink:href="#DejaVuSans-6f" transform="translate(154.443359 0)"/>
      <use xlink:href="#DejaVuSans-77" transform="translate(215.625 0)"/>
      <use xlink:href="#DejaVuSans-20" transform="translate(297.412109 0)"/>
      <use xlink:href="#DejaVuSans-66" transform="translate(329.199219 0)"/>
      <use xlink:href="#DejaVuSans-6c" transform="translate(364.404297 0)"/>
      <use xlink:href="#DejaVuSans-69" transform="translate(392.1875 0)"/>
      <use xlink:href="#DejaVuSans-70" transform="translate(419.970703 0)"/>
      <use xlink:href="#DejaVuSans-3d" transform="translate(483.447266 0)"/>
      <use xlink:href="#DejaVuSans-33" transform="translate(567.236328 0)"/>
      <use xlink:href="#DejaVuSans-34" transform="translate(630.859375 0)"/>
      <use xlink:href="#DejaVuSans-39" transform="translate(694.482422 0)"/>
      <use xlink:href="#DejaVuSans-37" transform="translate(758.105469 0)"/>
      <use xlink:href="#DejaVuSans-2c" transform="translate(821.728516 0)"/>
      <use xlink:href="#DejaVuSans-20" transform="translate(853.515625 0)"/>
      <use xlink:href="#DejaVuSans-3bb" transform="translate(885.302734 0)"/>
      <use xlink:href="#DejaVuSans-2248" transform="translate(944.482422 0)"/>
      <use xlink:href="#DejaVuSans-30" transform="translate(1028.271484 0)"/>
      <use xlink:href="#DejaVuSans-2e" transform="translate(1091.894531 0)"/>
      <use xlink:href="#DejaVuSans-37" transform="translate(1123.681641 0)"/>
      <use xlink:href="#DejaVuSans-39" transform="translate(1187.304688 0)"/>
      <use xlink:href="#DejaVuSans-36" transform="translate(1250.927734 0)"/>
     </g>
    </g>
   </g>
  </g>
 </g>
 <defs>
  <clipPath id="p4a2e77cc9a">
   <rect x="57.44" y="25.44" width="431.337347" height="292.6"/>
  </clipPath>
 </defs>
</svg>
